<svg xmlns="http://www.w3.org/2000/svg" xmlns:xlink="http://www.w3.org/1999/xlink"><symbol viewBox="0 0 70 24" id="logo"><path d="M 32.616 0 L 26.028 0 L 22.68 13.536 L 18.54 0 L 14.076 0 L 9.936 13.536 L 6.588 0 L 0 0 L 7.056 25.632 L 12.168 25.632 L 16.308 12.996 L 20.448 25.632 L 25.596 25.632 L 32.616 0 Z M 68.328 25.632 L 59.292 10.368 L 68.04 0 L 60.336 0 L 52.92 9.072 L 52.92 0 L 46.692 0 L 46.692 25.632 L 52.92 25.632 L 52.92 17.604 L 55.08 15.12 L 60.984 25.632 L 68.328 25.632 Z M 41.508 25.632 L 41.508 0 L 35.208 0 L 35.208 25.632 L 41.508 25.632 Z"/></symbol></svg>